# xmcd
# Copyright (C) 1995-1998 Ti Kan
#
# Track frame offsets:
#       150
#       16073
#       32489
#       47656
#       64635
#       82082
#       100264
#       114726
#       134751
#       148835
#       167571
#       181173
#       206188
#
# Disc length: 3947 seconds
#
# Revision: 0
# Processed by: cddbd v1.5PL3 Copyright (c) Steve Scherf et al.
# Submitted via: CD-Transfer v1.0
#
DISCID=b60f690d
DTITLE=Ray Wilko - Pinball
DYEAR=2004
DGENRE=
TTITLE0=Just Can't Cope
TTITLE1=Crazy
TTITLE2=Jealousy
TTITLE3=Waste My Time
TTITLE4=Bring Some Beauty
TTITLE5=Time Ride
TTITLE6=Fond Of Me
TTITLE7=Can't Love Without Being Loved
TTITLE8=Out In The Sun
TTITLE9=Captured In This Song
TTITLE10=Before I Go
TTITLE11=Taster
TTITLE12=Data Track
EXTD=
EXTT0=
EXTT1=
EXTT2=
EXTT3=
EXTT4=
EXTT5=
EXTT6=
EXTT7=
EXTT8=
EXTT9=
EXTT10=
EXTT11=
EXTT12=
PLAYORDER=
